<svg width="70" height="85" viewBox="0 0 70 85" fill="none" xmlns="http://www.w3.org/2000/svg">
<rect width="13.2408" height="41.5613" rx="6.62041" transform="matrix(0.721067 -0.692865 0.702612 0.711573 0 52.8892)" fill="#F6BF9B"/>
<path fill-rule="evenodd" clip-rule="evenodd" d="M4.62143 48.4534C4.13412 50.5564 4.70494 52.8532 6.34477 54.514L30.9126 79.3951C28.6628 79.9825 26.1653 79.3884 24.4253 77.6262L4.65154 57.6003C2.13297 55.0496 2.1361 50.9985 4.62143 48.4534Z" fill="#521414" fill-opacity="0.1"/>
<rect width="13.2535" height="49.5774" rx="6.62677" transform="matrix(0.768406 -0.639962 0.650215 0.75975 1.39941 12.8811)" fill="#F6BF9B"/>
<path fill-rule="evenodd" clip-rule="evenodd" d="M8.01232 7.68708C6.51606 10.0471 6.66018 13.19 8.58486 15.439L32.1887 43.0191C34.1719 45.3363 37.4207 45.9743 40.076 44.7745C39.7191 45.3373 39.269 45.8556 38.7274 46.3066C35.9152 48.6488 31.703 48.2896 29.3193 45.5044L5.71547 17.9243C3.33178 15.139 3.6792 10.9824 6.49146 8.64023C6.964 8.24668 7.47605 7.9294 8.01232 7.68708Z" fill="#521414" fill-opacity="0.1"/>
<rect width="13.2893" height="49.4427" rx="6.64464" transform="matrix(0.887274 -0.461243 0.471177 0.882039 22.5502 6.12952)" fill="#F6BF9B"/>
<path fill-rule="evenodd" clip-rule="evenodd" d="M30.151 2.4535C28.21 4.44533 27.687 7.52686 29.072 10.1196L46.1144 42.0228C47.5491 44.7086 50.58 46.0248 53.4317 45.4228C52.9525 45.9146 52.3868 46.34 51.742 46.6752C48.486 48.3678 44.4465 47.1192 42.7195 43.8864L25.6771 11.9831C23.9501 8.75028 25.1897 4.75738 28.4458 3.06474C28.9968 2.77832 29.5702 2.57612 30.151 2.4535Z" fill="#521414" fill-opacity="0.1"/>
<path fill-rule="evenodd" clip-rule="evenodd" d="M62.2336 25.1966C57.8393 25.0919 54.1898 28.5691 54.0821 32.9632L53.9881 36.7994C50.6583 35.3305 46.9537 34.5115 43.0502 34.5115C28.5491 34.5115 16.7936 45.8137 16.7936 59.7557C16.7936 73.6977 28.5491 85 43.0502 85C56.7392 85 67.9815 74.9282 69.1978 62.0718C69.2689 61.675 69.3108 61.2677 69.321 60.8522L69.9951 33.3427C70.1027 28.9485 66.6278 25.3014 62.2336 25.1966Z" fill="#F6BF9B"/>
<path fill-rule="evenodd" clip-rule="evenodd" d="M17.6004 65.9901C20.4873 76.917 30.787 84.9999 43.0502 84.9999C56.7392 84.9999 67.9815 74.9282 69.1978 62.0718C69.2689 61.6749 69.3108 61.2677 69.321 60.8522L69.454 55.4238C67.7218 68.5001 56.1062 78.6089 42.0349 78.6089C35.5288 78.6089 29.5477 76.4478 24.8257 72.8315C24.1955 72.5023 23.6057 72.072 23.0813 71.5409L17.6004 65.9901Z" fill="#521414" fill-opacity="0.1"/>
<rect width="13.2204" height="33.1412" rx="6.6102" transform="matrix(0.637523 -0.770431 0.778864 0.627192 8.36658 43.3464)" fill="#F6BF9B"/>
<path fill-rule="evenodd" clip-rule="evenodd" d="M12.6978 38.1161C12.0736 40.5223 12.8662 43.1786 14.9483 44.8552L30.4152 57.3103C33.2248 59.5727 37.3361 59.2086 39.6851 56.5206C39.4529 57.416 39.0244 58.2768 38.3932 59.0396C36.0658 61.8522 31.8631 62.2674 29.0063 59.9669L13.5393 47.5118C10.6825 45.2113 10.2533 41.0663 12.5807 38.2537C12.6192 38.2072 12.6582 38.1613 12.6978 38.1161Z" fill="#521414" fill-opacity="0.1"/>
<rect width="13.2334" height="31.7843" rx="6.61672" transform="matrix(0.692098 -0.721803 0.731142 0.682225 0.534424 52.4863)" fill="#F6BF9B"/>
<path fill-rule="evenodd" clip-rule="evenodd" d="M4.72902 48.1482C4.34036 50.2596 5.00609 52.5159 6.70348 54.0998L20.2668 66.7556C22.9386 69.2487 27.1548 69.1314 29.684 66.4938C29.8198 66.3521 29.9481 66.206 30.0687 66.056C29.8456 67.2681 29.275 68.4325 28.3526 69.3945C25.8234 72.0322 21.6072 72.1494 18.9354 69.6564L5.37206 57.0005C2.84376 54.6414 2.60438 50.7902 4.72902 48.1482Z" fill="#521414" fill-opacity="0.1"/>
</svg>
