<svg width="71" height="71" viewBox="0 0 71 71" fill="none" xmlns="http://www.w3.org/2000/svg">
<g opacity="0.5" clip-path="url(#clip0_285_3317)">
<circle cx="35.833" cy="35.5" r="35" fill="url(#paint0_linear_285_3317)"/>
<circle cx="35.333" cy="36" r="25" stroke="url(#paint1_linear_285_3317)" stroke-width="7"/>
<g filter="url(#filter0_f_285_3317)">
<path d="M22.393 31.08L16.713 34.6V28.36L23.913 23.72H28.393V52H22.393V31.08ZM33.2233 38.04C33.2233 35.48 33.5167 33.2933 34.1033 31.48C34.69 29.6667 35.4767 28.1867 36.4633 27.04C37.4767 25.8667 38.65 25.0133 39.9833 24.48C41.3167 23.9467 42.7433 23.68 44.2633 23.68C45.9967 23.68 47.5567 23.9867 48.9433 24.6C50.33 25.1867 51.5033 26.08 52.4633 27.28C53.4233 28.4533 54.1567 29.9333 54.6633 31.72C55.17 33.5067 55.4233 35.6133 55.4233 38.04C55.4233 40.6 55.13 42.7867 54.5433 44.6C53.9567 46.4133 53.1567 47.9067 52.1433 49.08C51.13 50.2267 49.9567 51.0667 48.6233 51.6C47.29 52.1333 45.8633 52.4 44.3433 52.4C40.85 52.3733 38.1167 51.1867 36.1433 48.84C34.1967 46.4933 33.2233 42.8933 33.2233 38.04ZM39.2633 38.04C39.2633 39.5333 39.3567 40.8133 39.5433 41.88C39.73 42.92 40.0233 43.7733 40.4233 44.44C40.8233 45.08 41.3433 45.56 41.9833 45.88C42.65 46.2 43.45 46.36 44.3833 46.36C46.1967 46.36 47.4767 45.6667 48.2233 44.28C48.97 42.8933 49.3433 40.8133 49.3433 38.04C49.3433 36.5733 49.25 35.32 49.0633 34.28C48.8767 33.2133 48.5833 32.3467 48.1833 31.68C47.7833 31.0133 47.25 30.52 46.5833 30.2C45.9433 29.88 45.17 29.7067 44.2633 29.68C42.4233 29.68 41.13 30.3867 40.3833 31.8C39.6367 33.1867 39.2633 35.2667 39.2633 38.04Z" fill="black" fill-opacity="0.3"/>
</g>
<path d="M22.393 27.08L16.713 30.6V24.36L23.913 19.72H28.393V48H22.393V27.08ZM33.2233 34.04C33.2233 31.48 33.5167 29.2933 34.1033 27.48C34.69 25.6667 35.4767 24.1867 36.4633 23.04C37.4767 21.8667 38.65 21.0133 39.9833 20.48C41.3167 19.9467 42.7433 19.68 44.2633 19.68C45.9967 19.68 47.5567 19.9867 48.9433 20.6C50.33 21.1867 51.5033 22.08 52.4633 23.28C53.4233 24.4533 54.1567 25.9333 54.6633 27.72C55.17 29.5067 55.4233 31.6133 55.4233 34.04C55.4233 36.6 55.13 38.7867 54.5433 40.6C53.9567 42.4133 53.1567 43.9067 52.1433 45.08C51.13 46.2267 49.9567 47.0667 48.6233 47.6C47.29 48.1333 45.8633 48.4 44.3433 48.4C40.85 48.3733 38.1167 47.1867 36.1433 44.84C34.1967 42.4933 33.2233 38.8933 33.2233 34.04ZM39.2633 34.04C39.2633 35.5333 39.3567 36.8133 39.5433 37.88C39.73 38.92 40.0233 39.7733 40.4233 40.44C40.8233 41.08 41.3433 41.56 41.9833 41.88C42.65 42.2 43.45 42.36 44.3833 42.36C46.1967 42.36 47.4767 41.6667 48.2233 40.28C48.97 38.8933 49.3433 36.8133 49.3433 34.04C49.3433 32.5733 49.25 31.32 49.0633 30.28C48.8767 29.2133 48.5833 28.3467 48.1833 27.68C47.7833 27.0133 47.25 26.52 46.5833 26.2C45.9433 25.88 45.17 25.7067 44.2633 25.68C42.4233 25.68 41.13 26.3867 40.3833 27.8C39.6367 29.1867 39.2633 31.2667 39.2633 34.04Z" fill="white"/>
</g>
<defs>
<filter id="filter0_f_285_3317" x="12.7129" y="19.68" width="46.7104" height="36.72" filterUnits="userSpaceOnUse" color-interpolation-filters="sRGB">
<feFlood flood-opacity="0" result="BackgroundImageFix"/>
<feBlend mode="normal" in="SourceGraphic" in2="BackgroundImageFix" result="shape"/>
<feGaussianBlur stdDeviation="2" result="effect1_foregroundBlur_285_3317"/>
</filter>
<linearGradient id="paint0_linear_285_3317" x1="-14.667" y1="35.5" x2="110.333" y2="35.5" gradientUnits="userSpaceOnUse">
<stop stop-color="#39E26D"/>
<stop offset="1" stop-color="#3ABAFF"/>
</linearGradient>
<linearGradient id="paint1_linear_285_3317" x1="2.33301" y1="1" x2="51.333" y2="74.5" gradientUnits="userSpaceOnUse">
<stop stop-color="white"/>
<stop offset="1" stop-color="white" stop-opacity="0"/>
</linearGradient>
<clipPath id="clip0_285_3317">
<rect width="70" height="70" fill="white" transform="translate(0.833008 0.5)"/>
</clipPath>
</defs>
</svg>
