<svg width="175" height="22" viewBox="0 0 175 22" fill="none" xmlns="http://www.w3.org/2000/svg">
<path fill-rule="evenodd" clip-rule="evenodd" d="M36.2712 7.30495C37.8364 9.16243 36.5642 10.7028 33.3439 10.7288L14.2834 11.223C11.0639 11.334 7.05573 9.92129 5.23466 8.23589L0.80989 3.93637C-0.883263 2.16493 0.132172 0.711626 3.35157 0.600595L9.79038 0.378535C10.4359 0.35556 11.0759 0.332632 11.6879 0.310703C12.265 0.290022 12.8174 0.270231 13.3262 0.252131C19.3167 3.42603 26.8355 7.34847 26.8355 7.34847L17.6717 0.116181C18.8804 0.0817267 20.7024 0.0353013 22.6689 0.0194047L24.3434 0.0058677C27.5628 -0.105164 31.3134 1.30962 32.8786 3.16709L36.2712 7.30495Z" fill="#FDB06A"/>
<path fill-rule="evenodd" clip-rule="evenodd" d="M36.2712 7.30495C37.8364 9.16243 36.5642 10.7028 33.3439 10.7288L14.2834 11.223C11.0639 11.334 7.05573 9.92129 5.23466 8.23589L0.80989 3.93637C-0.883263 2.16493 0.132172 0.711626 3.35157 0.600595L9.79038 0.378535C10.4359 0.35556 11.0759 0.332632 11.6879 0.310703C12.265 0.290022 12.8174 0.270231 13.3262 0.252131C19.3167 3.42603 26.8355 7.34847 26.8355 7.34847L17.6717 0.116181C18.8804 0.0817267 20.7024 0.0353013 22.6689 0.0194047L24.3434 0.0058677C27.5628 -0.105164 31.3134 1.30962 32.8786 3.16709L36.2712 7.30495Z" fill="url(#paint0_linear_1119_92)"/>
<path fill-rule="evenodd" clip-rule="evenodd" d="M36.2712 7.30495C37.8364 9.16243 36.5642 10.7028 33.3439 10.7288L14.2834 11.223C11.0639 11.334 7.05573 9.92129 5.23466 8.23589L0.80989 3.93637C-0.883263 2.16493 0.132172 0.711626 3.35157 0.600595L9.79038 0.378535C10.4359 0.35556 11.0759 0.332632 11.6879 0.310703C12.265 0.290022 12.8174 0.270231 13.3262 0.252131C19.3167 3.42603 26.8355 7.34847 26.8355 7.34847L17.6717 0.116181C18.8804 0.0817267 20.7024 0.0353013 22.6689 0.0194047L24.3434 0.0058677C27.5628 -0.105164 31.3134 1.30962 32.8786 3.16709L36.2712 7.30495Z" fill="url(#paint1_linear_1119_92)"/>
<path fill-rule="evenodd" clip-rule="evenodd" d="M36.4697 14.0109C37.9959 12.1282 36.5638 10.6949 33.3436 10.7216L14.2804 10.9644C11.0601 10.9911 7.34056 12.552 5.9432 14.4337L2.76737 18.7103C1.24119 20.5931 2.67323 22.0263 5.89351 21.9996L6.37218 21.9935C11.9617 19.2537 17.9354 16.361 17.9354 16.361L10.412 21.9421L24.9567 21.7568C28.177 21.7301 31.8965 20.1692 33.2939 18.2875L36.4697 14.0109Z" fill="#FF8000"/>
<path fill-rule="evenodd" clip-rule="evenodd" d="M36.4697 14.0109C37.9959 12.1282 36.5638 10.6949 33.3436 10.7216L14.2804 10.9644C11.0601 10.9911 7.34056 12.552 5.9432 14.4337L2.76737 18.7103C1.24119 20.5931 2.67323 22.0263 5.89351 21.9996L6.37218 21.9935C11.9617 19.2537 17.9354 16.361 17.9354 16.361L10.412 21.9421L24.9567 21.7568C28.177 21.7301 31.8965 20.1692 33.2939 18.2875L36.4697 14.0109Z" fill="url(#paint2_linear_1119_92)"/>
<path fill-rule="evenodd" clip-rule="evenodd" d="M36.4697 14.0109C37.9959 12.1282 36.5638 10.6949 33.3436 10.7216L14.2804 10.9644C11.0601 10.9911 7.34056 12.552 5.9432 14.4337L2.76737 18.7103C1.24119 20.5931 2.67323 22.0263 5.89351 21.9996L6.37218 21.9935C11.9617 19.2537 17.9354 16.361 17.9354 16.361L10.412 21.9421L24.9567 21.7568C28.177 21.7301 31.8965 20.1692 33.2939 18.2875L36.4697 14.0109Z" fill="url(#paint3_linear_1119_92)"/>
<path d="M7.99349 10.0566C7.9907 11.4199 8.53404 12.4813 9.23542 12.4828L153.722 11.8699C154.423 11.8714 154.971 10.8122 154.974 9.44888L7.99349 10.0566Z" fill="#494646"/>
<path d="M174.504 10.5829L153.691 16.9017C152.27 17.3331 150.833 16.2788 150.818 14.7939L150.738 6.84989C150.723 5.36496 152.138 4.28192 153.568 4.68461L174.504 10.5829Z" fill="url(#paint4_linear_1119_92)"/>
<path d="M174.504 10.5829L153.691 16.9017C152.27 17.3331 150.833 16.2788 150.818 14.7939L150.738 6.84989C150.723 5.36496 152.138 4.28192 153.568 4.68461L174.504 10.5829Z" fill="url(#paint5_linear_1119_92)"/>
<path d="M174.504 10.5829L153.691 16.9017C152.27 17.3331 150.833 16.2788 150.818 14.7939L150.738 6.84989C150.723 5.36496 152.138 4.28192 153.568 4.68461L174.504 10.5829Z" fill="url(#paint6_angular_1119_92)"/>
<defs>
<linearGradient id="paint0_linear_1119_92" x1="-3.28373" y1="-15.2076" x2="40.0069" y2="10.1387" gradientUnits="userSpaceOnUse">
<stop stop-color="#F66E6B"/>
<stop offset="1" stop-color="#FEB137"/>
</linearGradient>
<linearGradient id="paint1_linear_1119_92" x1="42.2358" y1="22.4709" x2="4.12613" y2="0.949621" gradientUnits="userSpaceOnUse">
<stop stop-color="#FFE177"/>
<stop offset="1" stop-color="#FEB137"/>
</linearGradient>
<linearGradient id="paint2_linear_1119_92" x1="35.4416" y1="9.17168" x2="10.8458" y2="21.1903" gradientUnits="userSpaceOnUse">
<stop stop-color="#FFE177"/>
<stop offset="1" stop-color="#FEB137"/>
</linearGradient>
<linearGradient id="paint3_linear_1119_92" x1="0.588277" y1="20.8263" x2="36.4452" y2="5.24757" gradientUnits="userSpaceOnUse">
<stop stop-color="#F66E6B"/>
<stop offset="0.624512" stop-color="#FEB137"/>
<stop offset="1" stop-color="#FFE076"/>
</linearGradient>
<linearGradient id="paint4_linear_1119_92" x1="158.132" y1="3.39168" x2="158.056" y2="21.7836" gradientUnits="userSpaceOnUse">
<stop stop-color="#F66E6B"/>
<stop offset="1" stop-color="#FEB137"/>
</linearGradient>
<linearGradient id="paint5_linear_1119_92" x1="168.131" y1="7.65423" x2="149.879" y2="8.03412" gradientUnits="userSpaceOnUse">
<stop stop-color="#FFE177"/>
<stop offset="1" stop-color="#FEB137"/>
</linearGradient>
<radialGradient id="paint6_angular_1119_92" cx="0" cy="0" r="1" gradientUnits="userSpaceOnUse" gradientTransform="translate(151.011 10.2507) rotate(1.1587) scale(23.1628 36.346)">
<stop stop-color="#F9B32C"/>
<stop offset="1" stop-color="#F9B72C" stop-opacity="0"/>
</radialGradient>
</defs>
</svg>
